<svg xmlns="http://www.w3.org/2000/svg" width="99.685" height="40.627" viewBox="0 0 99.685 40.627"><defs><style>.a{fill:#fff;}</style></defs><g transform="translate(4.858 -41.31) rotate(13)"><g transform="translate(11.476 38.44)"><g transform="translate(93.26 8.333)"><path class="a" d="M89.531,48.639l1.4-2q-1.016-.711-2.1-1.38l-1.285,2.08Q88.572,47.968,89.531,48.639Z" transform="translate(-87.551 -45.257)"/></g><g transform="translate(5.661)"><path class="a" d="M15.885,58.627c1.263-.944,2.555-1.868,3.839-2.748L21.107,57.9c-1.258.861-2.522,1.765-3.757,2.689Zm7.789-5.335c1.338-.837,2.7-1.651,4.058-2.419L28.937,53c-1.325.751-2.66,1.545-3.968,2.364ZM31.9,48.637c1.406-.715,2.839-1.4,4.262-2.046l1,2.228c-1.387.626-2.787,1.3-4.16,2Zm8.619-3.891c1.469-.581,2.964-1.128,4.442-1.629l.786,2.316c-1.441.488-2.9,1.022-4.329,1.588Zm54.8.111.869-2.285c1.508.574,2.985,1.211,4.388,1.895l-1.07,2.2C98.162,46.014,96.753,45.406,95.312,44.857ZM49.475,41.711c1.523-.43,3.067-.824,4.589-1.17l.541,2.384c-1.481.336-2.982.719-4.464,1.138Zm37.058.6.5-2.393c1.565.328,3.121.714,4.622,1.149l-.681,2.348C89.534,42.994,88.038,42.622,86.533,42.307ZM58.71,39.618c1.556-.265,3.135-.489,4.694-.665l.275,2.429c-1.511.171-3.045.389-4.558.647Zm18.737,1.441.17-2.439c1.588.11,3.179.274,4.728.485l-.331,2.421C80.518,41.323,78.981,41.166,77.447,41.059Zm-9.318-2.5c1.42-.077,2.855-.116,4.26-.116h.485l-.02,2.445h-.462c-1.365,0-2.756.038-4.131.112Z" transform="translate(-15.885 -38.44)"/></g><g transform="translate(0 23.102)"><path class="a" d="M12.831,60.786q.935-.787,1.87-1.545l-1.538-1.9q-.955.774-1.909,1.576Z" transform="translate(-11.254 -57.34)"/></g></g><g transform="translate(10.255 53.147)"><path class="a" d="M10.255,63.341l13.787-.633-.133-2.931-9.731.447,2.514-8.958-2.824-.793Z" transform="translate(-10.255 -50.472)"/></g></g></svg>