<svg xmlns="http://www.w3.org/2000/svg" width="42.562" height="42.562" viewBox="0 0 42.562 42.562"><defs><style>.a{fill:#fff;}</style></defs><g transform="translate(-1.67 -1.67)"><path class="a" d="M34.6,21.243v8.032a3.17,3.17,0,0,1-3.14,3.14H14.44a3.15,3.15,0,0,1-3.14-3.14V16.628a3.144,3.144,0,0,1,3.14-3.14H31.463a3.155,3.155,0,0,1,3.14,3.14Zm-1.466-2.263-7.56,4.61a5.055,5.055,0,0,1-5.293,0l-7.516-4.447V29.274a1.684,1.684,0,0,0,1.673,1.673H31.463a1.7,1.7,0,0,0,1.673-1.673V18.979Zm-20.37-1.532,8.261,4.888a3.6,3.6,0,0,0,3.782,0l8.327-5.077v-.634a1.69,1.69,0,0,0-1.673-1.673H14.44a1.681,1.681,0,0,0-1.673,1.673v.819Zm-.775-11a.732.732,0,0,1-.815-1.215A20.915,20.915,0,0,1,22.951,1.67,21.273,21.273,0,1,1,5.3,11.053a.733.733,0,0,1,1.215.819A19.818,19.818,0,1,0,22.951,3.136a19.5,19.5,0,0,0-10.96,3.316Z" transform="translate(0 0)"/></g></svg>